<svg xmlns="http://www.w3.org/2000/svg" width="16" height="16" viewBox="0 0 16 16">
  <path fill="#2e3436" fill-rule="evenodd" d="M8 1.5C4.69 1.5 2 2.62 2 4V12C2 13.38 4.69 14.5 8 14.5C11.31 14.5 14 13.38 14 12V4C14 2.62 11.31 1.5 8 1.5ZM8 3C10.76 3 12.5 3.9 12.5 4C12.5 4.1 10.76 5 8 5C5.24 5 3.5 4.1 3.5 4C3.5 3.9 5.24 3 8 3ZM3.5 6.35C4.66 6.94 6.24 7.25 8 7.25C9.76 7.25 11.34 6.94 12.5 6.35V7.6C11.34 8.19 9.76 8.5 8 8.5C6.24 8.5 4.66 8.19 3.5 7.6V6.35ZM3.5 9.85C4.66 10.44 6.24 10.75 8 10.75C9.76 10.75 11.34 10.44 12.5 9.85V11.1C11.34 11.69 9.76 12 8 12C6.24 12 4.66 11.69 3.5 11.1V9.85Z"></path>
</svg>